<svg version="1.2" xmlns="http://www.w3.org/2000/svg" viewBox="0 0 206 38" width="206" height="38">
	<title>New Project</title>
	<style>
		.s0 { fill: #000000 } 
	</style>
	<path id="Text layer 1" class="s0" aria-label="Aarush Sagar"  d="m17.6 28.1l-0.1-0.9q0.4-1.1 0.7-2.1 0.4-1 0.6-1 0.1 0 0.1 0 0 0-0.1-0.1 0-0.1 0.1-0.2 0.1-0.1 0.1-0.2v-0.1l-0.1 0.1q0-0.3 0-0.3 0.2 0 0.2-0.1h-0.1q0-0.2 0.1-0.4 0.2-0.1 0.3-0.4v-0.2l0.7-2.5h-0.1q0 0-0.1 0 0-0.1-0.1-0.1h-0.6q-0.2 0-0.5-0.1-0.3-0.1-0.6-0.3-0.3-0.1-0.5-0.3-0.3-0.2-0.3-0.3 0-0.2 0.1-0.2 0.2 0 0.4-0.1-0.5-0.2-0.5-0.7h0.3q0 0 0.3 0 0.2-0.1 0.4-0.1 0.2 0 0.4 0 0.2 0 0.3 0h0.6q0.1 0 0.3 0 0.3 0 0.6 0 0.3-0.1 0.5-0.1 0.3-0.1 0.3-0.3v-0.1l0.4-1.2 0.5-0.7 0.1-0.8 0.2 0.1 0.1-0.8 0.9-1.2-0.4-0.3 0.5-0.9q0 0 0.2-0.5 0.2-0.4 0.4-1 0.3-0.7 0.5-1.3 0.3-0.8 0.4-1.3l0.2-0.5q0 0 0 0 0-0.1 0-0.3 0.1-0.2 0.4-0.5 0-0.1 0-0.3 0.1-0.3 0.2-0.6 0.1-0.3 0.2-0.5 0.1-0.3 0.3-0.4l0.2 0.2q0 0 0.2 0 0.2-0.1 0.3-0.2 0.5 0.4 0.8 0.6 0.4 0.1 0.7 0.2 0.3 0.1 0.5 0.3 0.2 0.1 0.4 0.5 0 0.1 0.1 0.5 0.2 0.4 0.2 0.6v0.1q0.8 0.6 1.3 1.6 0.5 0.9 0.5 1.6l-0.1 0.2 0.9 3.1v0.6q0.2 0 0.2 0.2-0.1 0.1-0.1 0.2l-0.1 0.2 0.1 0.1v1.1h0.1q0 0.1 0 0.2-0.1 0.1-0.1 0.2l0.2 0.2q0 0.2 0 0.5 0 0.3 0 0.5 0.1 0.3 0.2 0.5-0.2 0.1-0.2 0.5 0 0.1 0.1 0.2 0 0 0 0.1 0 0.1 0 0.2l0.2-0.1-0.1 0.2 0.1 0.2-0.1 0.4q0 0.1 0.1 0.3 0.2 0.1 0.2 0.3-0.1 0-0.1 0.1v0.1q0 0.1 0 0.2 0.1 0 0.1 0l-0.1 0.2q0 0.5 0 0.6 0.1 0.1 0.3 0.5v0.1 1.2q0.1 0.1 0.1 0.1 0.1 0 0.1 0.1 0 0 0 0.1l0.1 0.1q0 0.2 0 0.5 0.1 0.1 0.1 0.2 0 0.3-0.2 0.5-0.2 0.1-0.2 0.3-0.1 0-0.1-0.1 0-0.1-0.2-0.1 0 0.2 0 0.2 0 0-0.2 0h-0.2q-0.1 0-0.2-0.1-0.1-0.2-0.1-0.2h-0.8q-0.2 0-0.2-0.1 0-0.1-0.1-0.1-0.2 0-0.2 0.2-0.1 0.1-0.4 0.1-0.8-0.2-0.8-1.1 0-0.1 0.1-0.1 0.1-0.1 0.1-0.1 0-0.6-0.2-1-0.1-0.5-0.1-1 0.1 0 0.2 0.1 0 0 0.1 0.1-0.1 0-0.1 0.2 0 0.2 0.3 0.3 0-0.1 0-0.1 0 0 0 0 0-0.1 0-0.1 0 0 0-0.1 0-0.1 0-0.3 0-0.2-0.1-0.4v-0.6l-0.1-0.1-0.1 0.4-0.1-0.2-0.2 0.6q0-0.2 0-0.4 0-0.3 0-0.5v-0.8q0 0-0.3-0.1-0.2-0.1-0.6-0.1-0.2 0-0.5 0-0.3 0-0.4 0-0.2 0-0.4 0-0.1 0.1-0.3 0.1-0.3 0-0.6-0.1-0.3-0.1-0.5-0.1h-0.4q-0.3 0-0.4 0.3-0.1 0.2-0.1 0.5-0.1 0.3-0.1 0.5 0 0.3 0 0.4l-0.2 0.4h0.3l-0.1 0.2h-0.5q0 0.3-0.2 0.7-0.2 0.5-0.4 0.8l-0.1 0.1q0 0 0 0.1 0 0 0 0.1v0.1q0 0.1 0.1 0.2-0.2 0.3-0.4 0.7-0.2 0.3-0.3 0.7v0.4q-0.2 0.5-0.4 1.1-0.3 0.5-0.3 0.9h0.3q-0.1 0.2-0.3 0.2-0.1 0-0.1 0.1 0.1 0 0.1 0.2 0 0.3-0.1 0.5-0.2 0.1-0.4 0.3-0.1 0.1-0.3 0.3-0.1 0.3-0.1 0.7l0.1 0.1q0 0.1-0.2 0.5-0.3 0.4-0.4 0.6 0 0.2-0.3 0.2 0 0.1 0.1 0.1 0.1 0 0.2 0.1-0.1 0.2-0.2 0.3-0.1 0-0.1 0.2l0.3-0.1q0 0.2-0.1 0.3 0 0 0 0.1v0.1l-0.5 1.2h0.1l-0.2 1.4q-0.1 0.1-0.1 0.3 0 0.1-0.1 0.3 0 0.1-0.2 0.2-0.2 0-0.4 0.2-0.1 0-0.2-0.1-0.1-0.1-0.1-0.2 0-0.1 0-0.1-0.2-0.1-0.2-0.2 0 0-0.2 0l-0.1 0.1q-0.1 0.3-0.1 0.3l-1-0.2 0.9-0.2q-0.1-0.1-0.6-0.1-0.4 0-0.5 0-0.1 0.1-0.1 0.1 0 0.1-0.1 0.1v-0.4q-0.1 0.1-0.1 0.1-0.1 0-0.3-0.1-0.3-0.1-0.4-0.1v-0.2q-0.4 0-0.5 0.2-0.3-0.3-0.4-0.6-0.2-0.3-0.3-0.4 0.4-0.2 0.4-0.5 0-0.3 0-0.6h0.1l0.3 0.4q0-0.6 0.2-1.2 0.3-0.7 0.3-1.2v-0.5l0.1-0.5q0.2-0.4 0.3-0.6 0-0.2 0.1-0.5l0.2-0.1h0.5l0.7-0.3v0.3l-0.3 0.4v0.5l0.3 0.3q0-0.2 0.3-0.5 0.2-0.3 0.2-0.5v-0.7q0-0.1-0.1-0.2-0.1-0.1-0.2-0.1h-0.2l-0.3 0.3zm8.7-11.2l0.2 0.1h0.6q0.2 0 0.6 0 0.4 0 0.7-0.1 0.4 0 0.7-0.2 0.3-0.1 0.3-0.3h-0.2v-0.7q-0.1 0-0.1 0v-0.3h-0.1q0-0.1 0.1-0.1 0-0.1 0-0.2l-0.2-0.1q0.1 0 0.2-0.1l-0.1-0.3v-0.1q0-0.1 0.1-0.1 0-0.1 0-0.2 0-0.3-0.1-0.5-0.2-0.3-0.2-0.5l0.1-0.4-0.5-1.2v-0.1q0 0-0.1-0.2-0.1-0.2-0.1-0.3-0.4 1.2-0.9 2.7-0.5 1.5-1 2.7zm-8.2 13.6l-0.2 0.3q0 0.1-0.1 0.4l-0.1 0.3v1.2l0.3-0.2q0-0.2 0-0.4 0.1-0.2 0.1-0.3zm-0.8 1.2v-0.9q-0.1 0.2-0.2 0.5-0.1 0.2-0.1 0.4v0.7zm13.2-8.1v0.1q0 0.3 0.2 0.3 0 0 0-0.1 0.1-0.1 0.1-0.2 0-0.3-0.2-0.3-0.1 0-0.1 0.2zm-11.5 6.3q-0.2 0-0.2 0.3 0 0.2 0.2 0.2 0.2 0 0.2-0.2 0-0.3-0.2-0.3zm-0.5-0.2q-0.2 0-0.2 0.3 0 0.2 0.2 0.2 0.2 0 0.2-0.2 0-0.3-0.2-0.3zm0.3 5.1q0 0-0.4 0-0.3 0-0.4 0 0 0 0 0v0.1h0.3q0.2 0 0.3 0 0.2 0 0.2-0.1zm-1.8-1.9q0-0.2-0.1-0.2-0.1 0-0.1 0.2 0 0.2 0.1 0.2 0.1 0 0.1-0.2zm13.5-10.3v0.2 0.2 0.1h0.1q0-0.1 0-0.1 0 0 0-0.1 0-0.2-0.1-0.3zm-10.1 12v0.2h0.1zm-0.6 0.8l0.1 0.1v-0.1zm22.4-12q0.9 0.2 0.9 0.3l-0.1 0.4q0 0.5 0.2 0.9 0.1 0.1 0.2 0.2 0 0.1-0.4 0.1-0.4 0-0.9 0.1-0.5 0-1.1 0.1-0.5 0-0.8 0h-0.3q-1 0-1.7-0.4-0.6-0.3-1-1l-0.2-0.1-0.1-0.6q-0.1-0.4-0.2-0.7-0.1-0.3-0.1-0.7 0.1-0.2 0.2-0.4 0.2-0.2 0.4-0.4 0.1-0.1 0.2-0.2 0.1-0.1 0-0.1 0-0.3 0.3-0.6 0.2-0.4 0.6-0.7 0.4-0.4 0.8-0.7 0.5-0.4 0.8-0.5h0.3q0.1 0 0.5 0 0.4-0.2 0.6-0.3l0.6-0.4q0.3-0.1 0.3-0.3l1.8-0.8q0-0.1 0.1-0.2 0.2-0.2 0.2-0.2l-0.4-1.4q0-0.1-0.1-0.1-0.1 0-0.1 0 0 0 0 0h-0.1q-0.2 0-0.8 0.1-0.6 0.1-1.1 0.2-0.6 0.2-1.1 0.2-0.5 0.1-0.5 0.1 0 0.1-0.1 0.1-0.3 0-0.6-0.3-0.3-0.3-0.5-0.5l-0.4-0.2-0.3-0.1q0-0.1 0-0.2-0.1-0.1-0.1-0.2l-0.1-0.1q0-0.3 0.7-0.4 0.8-0.2 1.9-0.4 1.1-0.1 2.4-0.1 1.3-0.1 2.4-0.1h0.1q0.7 0 1.1 0.2 0.4 0.2 0.6 0.5 0.3 0.3 0.5 0.6 0.2 0.3 0.4 0.6v0.8q0 0.5 0 0.8 0 0.3 0 0.5 0 0.3 0 0.6-0.1 0.3-0.2 0.8 0 0.2 0.1 0.4 0.1 0.1 0.1 0.3v0.4l-0.3 0.4 0.2 0.3-0.3 0.4q0 0.1-0.1 0.2 0 0.1 0 0.2v0.1 0.7l0.3 0.1v0.3l-0.3 0.1 0.1 0.2-0.1 0.3q-0.2 0.4-0.3 1.2-0.1 0.7-0.1 1.1-0.1 0.1-0.4 0.1-0.2 0-0.6 0.1-0.3 0-0.6 0-0.3 0-0.3 0-0.4 0-0.7-0.3-0.3-0.2-0.5-0.5-0.1-0.4-0.2-0.7 0-0.4 0-0.7 0-0.8 0.2-1.3 0.3-0.5 0.3-1.3-0.1-0.4-0.1-0.7 0.1-0.4-0.3-0.4-0.1 0.1-0.2 0.2-0.1 0.1-0.2 0.1-0.1 0-0.2 0-0.1 0-0.4 0.1-0.4 0.1-0.7 0.3-0.4 0.2-0.7 0.4-0.3 0.2-0.3 0.3-0.5 0.3-1 0.5-0.4 0.2-0.8 0.5v0.7q0 0.1-0.1 0.2 0 0.2 0 0.3v0.1l0.2-0.2 0.1 0.2q0.3 0.1 0.7 0.1 0.3-0.1 0.4 0 0 0 0 0 0.1 0 0.1 0 0.3 0 0.6 0.2 0.3 0.2 0.6 0.2 0.1 0 0.1 0zm12.9-1.9v0.4q0 0.3 0.1 0.5 0 0.1 0 0.4 0 0.2-0.2 0.3l-0.2 2q-0.2 0-0.4 0h-0.2q-0.1 0-0.3 0.1v-0.3q-0.1 0.1-0.1 0.2v0.3 0.2q-0.1-0.1-0.3-0.1-0.1 0-0.1 0.1 0.1 0 0 0-0.1 0-0.5-0.2-0.4-0.2-0.9-0.2-0.3 0-0.4 0 0-0.1 0-0.2 0-0.1 0-0.2-0.2-0.2-0.3-0.6 0-0.4-0.4-0.4h-0.1q0.2-0.3 0.2-0.5 0-0.4 0-0.6 0-0.1-0.1-0.5v-0.6-0.4-0.1q0-0.1 0.2-0.2 0.1-0.1 0.2-0.2 0-0.1-0.1-0.3 0-0.2 0-0.3l0.2-0.3q-0.1 0-0.1-0.2 0-0.3 0-0.7 0.1-0.3 0.1-0.5 0-0.3-0.1-0.3l0.4-5.1q0.1-0.4 0.2-0.4 0.2-0.1 0.4-0.1 0.2 0 0.6 0.1 0.4 0.1 0.7 0.3 0.3 0.1 0.6 0.3 0.3 0.1 0.4 0.2 0 0.1 0.1 0.4 0.1 0.2 0.3 0.5 0.1 0.3 0.2 0.6 0.2 0.2 0.4 0.2l0.1-0.1q0.6-0.3 0.9-0.6 0.2-0.3 0.9-0.5 0-0.1 0.6-0.5 0.6-0.3 1.3-0.6 0.7-0.4 1.2-0.6 0.6-0.3 0.4-0.3 0.2 0 0.7 0.2 0.4 0.2 0.8 0.5l0.8 0.9-0.6 0.8-0.7 0.3 0.1 0.2q-0.2 0.2-0.7 0.3-0.5 0-0.8 0.2 0 0 0 0l0.1 0.1q-0.7 0.2-1.3 0.4-0.6 0.2-1.1 0.5-0.6 0.2-1 0.5l-0.7 0.7q0 0-0.2 0.2-0.3 0.1-0.6 0.4-0.2 0.2-0.5 0.5-0.3 0.3-0.3 0.5v0.1l0.4 0.1zm4-7.6q-0.6 0.2-1 0.5l-0.5 0.3q0.6-0.3 1.2-0.5 0.6-0.3 1.1-0.4-0.2 0-0.4 0-0.2 0-0.4 0.1zm-2.3 1q-0.1 0.1-0.4 0.3-0.3 0.2-0.4 0.3l-0.3 0.2h0.1q0-0.1 0.3-0.2 0.2-0.2 0.4-0.3 0.3-0.1 0.5-0.1 0.2-0.1 0.2-0.2 0-0.1-0.3-0.2-0.1 0-0.1 0.1 0 0 0 0.1zm18.7 1.2l-0.1-0.5 0.2-0.6 0.2 0.2-0.1 0.2 0.1 0.5h0.2l0.4-1.1-0.1-0.2-0.3 0.1q0.1-0.1 0.1-0.2 0-0.1-0.1-0.1 0-0.1-0.1-0.3l0.3-0.8v-0.4q0-0.2 0.2-0.2l-0.1-0.6h0.2q0 0 0.2-0.1l1.2 0.1 0.4-0.2 0.6 0.2 0.2-0.1h0.1 0.3l0.7 0.7v0.1l0.5 0.3q0.1 0.1 0.2 0.3 0.1 0.2 0.1 0.3v0.1l-0.1 0.1-0.1 0.5q0 0.2-0.2 0.4-0.1 0.2-0.1 0.4l-0.2 0.9q0 0.1-0.2 0.6-0.2 0.4-0.2 0.6v0.6q0 0.2-0.3 0.9-0.3 0.7-0.3 1.5v0.4q0 0.1 0 0.1l-0.1-0.1q0 0 0 0l-0.3 0.3v1l-0.1 0.5 0.1 0.9v0.7q0 0.3 0 0.5-0.1 0.3-0.1 0.3h-0.3q-0.4 0.2-0.9 0.2-0.5-0.1-1.1 0.3h-0.2q-0.5 0-0.8-0.2l-1.1-0.7v-1.6q-0.7 0.5-1.3 0.8-0.5 0.4-1.6 0.5l-1 0.1-0.4-0.1-0.2 0.2-0.1-0.2q-0.1 0-0.3 0-0.2-0.1-0.3-0.1h-0.2q-0.2 0-0.7-0.2-0.4-0.2-0.9-0.5-0.4-0.4-0.7-0.8-0.3-0.5-0.4-1l-0.3-0.9 0.2-0.6 0.1-1.2q0-0.1 0-0.3 0.1-0.3 0.1-0.4 0 0 0-0.1 0-0.1 0-0.1l0.2-0.6v-0.1-0.3q0-0.2 0-0.2l0.1-0.3q0.1-0.1 0.1-0.4 0-0.3 0-0.4l0.2-0.4 0.4-0.6v-0.3q0.1-0.4 0.1-0.9 0.1-0.6 0.6-0.6 0.4 0 0.8 0.3 0.4 0.2 0.8 0.6 0.4 0.4 0.6 0.8 0.3 0.4 0.3 0.7 0 0.4-0.3 0.9-0.2 0.4-0.2 1.1l0.1 0.3-0.7 2.9 0.2 0.5q0.1 0.3 0.1 0.5 0.1 0.2 0.4 0.2 1.3 0 2.4-0.4 1.1-0.5 1.8-1.4l0.2-0.2q0 0 0-0.1 0-0.2 0-0.3 0.1-0.1 0.1-0.2l0.1 0.2 0.9-0.7q0-0.1 0-0.1 0-0.1-0.1-0.2-0.1 0.1-0.2 0.1 0 0-0.4-0.1 0-0.4 0.2-0.6 0.2-0.3 0.3-0.5h-0.1q-0.1 0-0.2-0.3-0.1 0-0.2 0.1 0 0-0.1 0 0.1-0.1 0.3-0.4 0.3-0.3 0.3-0.5zm0.1 1.9q0.1 0.1 0.1 0.1 0.2 0 0.2-0.2 0.1-0.3 0.3-0.8-0.1 0-0.4 0.4-0.2 0.3-0.2 0.5zm-0.1-1.1v-0.2h-0.2q0 0 0.2 0.2zm0.3-0.5v0.1l0.1-0.3zm13.3 9.5q-0.1 0-0.4 0-0.2 0-0.5-0.1-0.3 0-0.5-0.1-0.3 0-0.4-0.1l-1.1-0.4q-0.1 0-0.3-0.1-0.3-0.1-0.9-0.3l-0.6-0.8q0-0.4 0.4-0.7 0.5-0.4 0.8-0.5 0.1 0 0.3 0 0.2 0.1 0.4 0.2 0.2 0 0.4 0 0.2 0.1 0.3 0.1 0.4 0 1.1-0.1 0.6 0 1.3 0 0.6-0.1 1.1-0.2 0.5-0.2 0.5-0.3l0.2-1.2q0-0.5-0.3-0.8-0.3-0.3-0.8-0.3-0.1 0-0.2 0.1l-1.2-0.2h-0.5q-0.3 0-1.1-0.2-0.8-0.1-1.5-0.5-0.7-0.3-1.3-0.8-0.6-0.5-0.6-1.1 0-0.4 0.1-0.6 0.2-0.1 0.3-0.6h-0.1q0-0.2 0.1-0.5 0.1-0.2 0.3-0.5 0.1-0.3 0.3-0.6 0.1-0.2 0.2-0.4l1.5-1.7q0.1-0.1 0.2-0.1 0.2 0 0.2-0.1l1-0.6h0.2q0 0 0.3-0.1l1.2-0.3h0.4l0.1 0.1q0.2 0.1 0.4 0.1 0.3 0 0.6 0h0.8q0.1 0 0.2 0.3 0.2 0.2 0.3 0.2 0.4 0.3 0.7 0.5 0.3 0.1 0.5 0.4 0.3 0.1 0.5 0.5 0.1 0.2 0.1 0.8 0 0.1-0.2 0.2-0.3 0.1-0.4 0.2h-0.8q0 0-0.2 0-0.1 0.1-0.3 0.1-0.2 0.1-0.4 0.1-0.2 0-0.2 0h-1.7q-0.1 0.3-0.5 0.4-0.4 0-0.7 0.1-0.6 0.4-0.7 0.9-0.2 0.4-0.3 1 0.7 0.4 1.6 0.6 1 0.2 1.3 0.2l1.2 0.4q1.3 0.3 1.7 1 0.5 0.6 0.7 1.3l0.1 0.5v0.4q0 0.2 0 0.3-0.1 0.1-0.1 1l-0.2 0.7-0.2 0.1q-0.5 0.7-0.8 1.1-0.4 0.4-1.2 0.5-0.1 0-0.1 0.1-0.1 0.1-0.4 0.2-0.2 0-0.7 0.1-0.5 0.1-1.5 0.1zm-4.6-8.7q0 0.4 0.3 0.6 0.4 0.2 0.7 0.2l-0.1-0.5v-0.1q0-0.3 0-0.3 0.1-0.1 0.1-0.4-0.2 0-0.2-0.2 0-0.1 0.1-0.3 0.1-0.3 0.2-0.3v0.3q0.1 0 0.1-0.3 0.1-0.2 0.1-0.3 0-0.2-0.1-0.2l-0.1 0.2v-0.6h-0.1q-0.1 0.1-0.2 0.4-0.1 0.1-0.2 0.3-0.1 0.3-0.1 0.6 0 0.3-0.2 0.6-0.1 0.3-0.2 0.2-0.1 0-0.1 0.1zm3.4-4.1h-0.1q-0.7 0-1.3 0.7-0.5 0.6-0.7 1.3 0.4 0 0.5-0.4 0.1-0.5 0.3-0.7 0 0 0.2-0.1 0.2-0.1 0.4-0.3 0.2-0.1 0.4-0.2 0.2-0.1 0.3-0.3zm9.8 4.5v-0.4q0-0.2-0.1-0.4-0.1-0.2-0.1-0.5v-0.1q-0.1-0.1-0.1-0.1l0.1-0.1q0.1-0.3 0.2-0.9 0.2-0.5 0.2-1l-0.1-0.2q0-0.2 0.2-0.8 0.1-0.7 0.2-1.6 0-0.1 0-0.2 0-0.2 0-0.3 0-0.8 0.2-1.4 0.2-0.5 0.2-1.4 0-0.2 0.1-0.7 0-0.4 0.1-0.8 0.1-0.4 0.2-0.8 0.2-0.3 0.3-0.3l0.9-0.5q0.2 0.1 0.2 0.1 0.1 0 0.1 0 0 0 0.2-0.1 0.2 0.1 0.6 0.1 0.4 0.1 0.8 0.2 0.4 0.1 0.9 0.2 0.4 0.2 0.5 0.4l-0.4 1q0 0.2-0.1 0.6-0.1 0.4-0.2 0.9-0.1 0.5-0.3 0.9 0 0.5 0 0.6 0 0.2 0 0.7 0 0.5 0.1 0.7 0 0.1-0.1 0.2-0.1 0.2-0.1 0.2 0.1 0 0.1 0.1 0 0.1-0.2 0.3-0.1 0.2-0.1 0.6l0.1 0.3-0.1 0.3 0.1 0.1q0 0-0.1 0.3 0 0.4 0 0.8-0.1 0.4-0.1 0.8 0 0.3 0 0.4l0.2 0.5v0.3l-0.3 1 0.3-0.1q0.1-0.1 0.4-0.2 0.4-0.1 0.7-0.3 0.4-0.1 0.7-0.3 0.4-0.1 0.5-0.1 0.1 0 0.5-0.3 0.4-0.2 0.5-0.2h0.6q0.6 0 1.3 0.1 0.8 0.1 1.4 0.1l0.7 1.8-0.4 0.4q-0.3 0.9-0.3 1.6 0 0.6-0.1 1.6 0.1 0.3 0.1 0.4-0.1 0.6-0.2 1.5-0.2 0.8-0.2 1.6 0 0.4 0.1 0.6l-0.2 0.1q-0.2 0.1-0.3 0.3-0.1 0.1-0.3 0.1-0.1 0-0.4-0.1-0.3-0.2-0.5-0.2h-0.1l0.1 0.1-0.1 0.1q0 0.1 0.2 0.1h0.1v0.3q-0.9 0-1.4-0.7-0.5-0.7-0.5-1.5 0-1.4-0.2-2.8-0.2-1.4-0.2-2.7h-0.1q-0.6 0-0.9 0.3-0.4 0.2-0.8 0.2l-0.2 0.1q0 0.1-0.1 0.1h-0.1q-0.3 0.1-0.7 0.3-0.5 0.3-0.6 0.7 0.2 0 0.2 0.2 0 0.3-0.3 0.5-0.3 0.2-0.3 0.5l-0.2 0.5 0.3 0.7-0.3 0.7v0.6l-0.1 0.4 0.2 0.9-0.3 0.8-1.3-0.2q-0.1 0-0.2 0 0 0-0.1 0l-0.7-0.2-0.4-0.3q0 0-0.2-0.3-0.1-0.3-0.2-0.4l0.1-0.4-0.2 0.1-0.2-0.3-0.1-0.2 0.2-0.5-0.2-0.1v-0.9q0.1 0 0.3-0.3l0.1-0.2 0.1-0.4-0.3-0.1 0.1-0.4 0.2-0.2q0-0.2 0.1-0.5 0.1-0.3 0.1-0.4l-0.1-0.3v-0.6-0.4l-0.2-0.6 0.2 0.1q0-0.1 0-0.3 0.1-0.3 0.1-0.5zm-0.3 6.2l0.1 0.2v0.3l0.2-0.1v-0.5zm0.2-0.7h-0.1q-0.1 0-0.1 0.2 0 0.2 0.2 0.2 0.1 0 0.1-0.2 0-0.2-0.1-0.2zm0.5 0q-0.1 0.1-0.1 0.1 0 0.1 0.1 0.1 0.1 0 0.1-0.1 0-0.1-0.1-0.1zm23.5-0.4q0.5-0.1 1.1-0.1 1.3 0 2.4 0.1 1 0.2 1.9 0.3l0.4-0.3h1.2q0.1 0 0.2 0 0.1 0 0.2-0.1 0.1-0.2 0.2-0.2 0.5 0 1-0.2 0.6-0.1 0.8-0.4 0.3-1 0.5-2.1 0.1-1 0.1-1.8l-0.3-0.5q0-0.2-0.3-0.3-0.4-0.2-0.4-0.2l-0.5-0.1q-0.4 0-0.8-0.2-0.2-0.1-0.6-0.2-0.3-0.2-0.8-0.3-0.5-0.2-1.3-0.2h-0.4q-0.1 0-0.1-0.1-0.4-0.4-0.9-0.5-0.4-0.1-0.7-0.5-0.1 0-0.2-0.3-0.1-0.4-0.3-0.8-0.1-0.5-0.2-0.9-0.1-0.4-0.1-0.5 0.2 0 0.2-0.3 0-0.1 0-0.2 0-0.1 0-0.2 0-0.1 0.1-0.2l0.2-0.1q0.2-0.2 0.1-0.3 0-0.2 0.1-0.3v0.4l0.1-0.1 1.1-3.2 1.4-1.5 0.8-0.5 0.8 0.3q0.3 0 0.7-0.1 0.5-0.1 0.8-0.1 0.7 0 1.5 0.2 0.9 0.2 1.7 0.6 0.8 0.3 1.4 0.7 0.7 0.3 0.9 0.4 0 0.4-0.1 0.4-0.1 0-0.1 0.1 0 0.1 0.1 0.2 0 0 0 0.2 0 0.1-0.2 0.3-0.2 0.2-0.4 0.2l-2.6-0.3h-0.2q-0.2 0-0.7 0-0.4 0-0.7 0-0.6 0-1.2 0.3-0.5 0.4-0.9 1-0.4 0.6-0.6 1.4-0.2 0.7-0.2 1.5 0 0.1 0.2 0.3 0.2 0.1 0.4 0.2 0.2 0.1 0.4 0.1 0.3 0 0.4 0l0.2 0.1q0.3 0.2 0.4 0.3 0.1 0.1 0.3 0.1h0.2l0.5-0.1 0.8 0.3q0.1 0.1 0.3 0.1h0.5q0.7 0.2 1.4 0.5 0.7 0.4 1.2 0.9 0.5 0.6 0.8 1.5 0.3 0.8 0.3 2.2 0 0.4 0 0.8-0.1 0.4-0.2 0.8v0.1q-0.1 0.1-0.4 0.4-0.2 0.3-0.3 0.4l-0.1 0.5-0.3 0.1-1.7 2.3q-0.6 0.1-1.2 0.4-0.4 0.1-1 0.1-0.1 0-0.3-0.1-0.4 0.1-0.7 0.1-0.3 0-0.7 0-0.4 0-1.5-0.1-1.2 0-2.4-0.2-1.2-0.2-2.4-0.3-1.1-0.2-1.7-0.3 0-0.1 0.1-0.1 0.2-0.1 0.2-0.3 0 0-0.1 0-0.1 0-0.2-0.2 0.1 0 0.3 0 0.2 0 0.2-0.1l-0.1-0.3 0.1-0.2q0-0.1 0.1-0.1 0-0.1 0-0.1 0-0.2-0.1-0.2-0.1 0.1-0.1-0.3zm3.2-13.4q0 0.1-0.1 0.6-0.1 0.5-0.2 0.6-0.1 0-0.1-0.2 0 0 0.1-0.4 0.2-0.5 0.3-0.6zm0.3-1.1q0 0 0.1 0h0.1l-0.4 0.7q-0.1 0-0.1-0.2 0 0 0.1-0.2 0.1-0.2 0.2-0.3zm19.4 15.2q0.8 0.2 0.8 0.3v0.4q0 0.5 0.1 0.9 0.1 0.2 0.2 0.2 0 0.1-0.4 0.2-0.3 0-0.9 0-0.5 0-1 0.1-0.5 0-0.8 0h-0.3q-1 0-1.7-0.3-0.7-0.3-1.1-1.1l-0.2-0.1-0.1-0.6q0-0.3-0.1-0.7-0.1-0.3-0.1-0.6 0-0.3 0.2-0.5 0.2-0.2 0.3-0.3 0.2-0.2 0.3-0.3 0.1-0.1-0.1-0.1 0-0.2 0.3-0.6 0.3-0.3 0.7-0.7 0.4-0.4 0.8-0.7 0.4-0.3 0.7-0.5l0.4 0.1q0.1 0 0.4-0.1 0.4-0.2 0.7-0.2l0.6-0.5q0.3 0 0.3-0.3l1.8-0.8q0-0.1 0.1-0.2 0.1-0.1 0.1-0.2l-0.3-1.4q0-0.1-0.2-0.1 0 0 0 0 0 0-0.1 0-0.3 0-0.9 0.1-0.5 0.1-1.1 0.2-0.6 0.2-1.1 0.3-0.4 0.1-0.4 0.1-0.1 0-0.1 0-0.3 0-0.6-0.3-0.3-0.2-0.5-0.5l-0.5-0.1-0.2-0.2q0-0.1 0-0.2-0.1 0-0.1-0.1l-0.1-0.2q0-0.2 0.7-0.4 0.8-0.2 1.9-0.3 1.1-0.2 2.4-0.2 1.3-0.1 2.4-0.1h0.1q0.6 0 1 0.2 0.4 0.2 0.7 0.5 0.3 0.3 0.4 0.6 0.2 0.4 0.5 0.6v0.8q0 0.5 0 0.8 0 0.3 0 0.5 0 0.3 0 0.6-0.1 0.3-0.2 0.8 0 0.2 0.1 0.4 0.1 0.1 0.1 0.3v0.1 0.3l-0.4 0.4 0.3 0.3-0.3 0.4q0 0.1-0.1 0.2 0 0.2 0 0.3l-0.1 0.7 0.4 0.1-0.1 0.3-0.2 0.1v0.2 0.3q-0.2 0.4-0.3 1.2-0.1 0.7-0.1 1.1-0.1 0.1-0.4 0.1-0.3 0-0.6 0.1-0.4 0-0.7 0-0.2 0-0.2 0-0.4 0-0.8-0.2-0.2-0.3-0.4-0.6-0.1-0.3-0.2-0.7-0.1-0.4-0.1-0.7 0-0.8 0.2-1.2 0.3-0.5 0.3-1.4-0.1-0.3 0-0.7 0.1-0.4-0.3-0.4-0.1 0.1-0.3 0.2-0.1 0.1-0.1 0.1-0.1 0-0.3 0-0.1 0-0.4 0.1-0.3 0.2-0.7 0.4-0.3 0.1-0.6 0.3-0.3 0.2-0.3 0.3-0.5 0.3-1 0.5-0.5 0.2-0.8 0.6l-0.1 0.6q0 0.1 0 0.3-0.1 0.1-0.1 0.2l0.1 0.1 0.1-0.2 0.2 0.3q0.3 0 0.6 0 0.3 0 0.5 0.1 0 0 0 0 0.1-0.1 0.1-0.1 0.2 0 0.5 0.2 0.4 0.3 0.7 0.3 0.1 0 0.1-0.1zm11.3 10.4l-0.1-0.1q-0.1 0-0.1 0-0.1 0-0.1 0 0 0-0.1 0v0.1q-0.1 0-0.1 0.1-0.1 0-0.2 0v0.1h0.5q-0.1 0.1-0.3 0.2-0.1 0-0.3 0l0.2 0.1-0.7 0.2q0 0.1 0 0.2 0.1 0 0.1 0.1 0 0-0.1 0.2l-0.3 0.1 0.1 0.1q-0.1 0-0.4 0-0.3 0-0.3 0.1 0 0 0 0l0.1 0.1h-0.1 0.1q0 0.1-0.4 0.1-0.5 0-0.6-0.2 0-0.1-0.4-0.2 0-0.1 0-0.1 0.1-0.1 0.1-0.2-0.2 0-0.2 0-0.1 0-0.2-0.2l-0.4-0.2q0.1 0 0.1 0 0-0.1 0.3-0.1h0.1v-0.3q-0.1 0-0.2 0 0-0.1-0.1-0.1-0.1 0-0.2 0.2l-0.3-0.3q0.1-0.1 0.1-0.1 0-0.1-0.1-0.1 0 0 0-0.1l-0.2-0.1-0.1 0.1q-0.1 0-0.1-0.2-0.1-0.3-0.1-0.2 0-0.3 0.2-0.5 0.2-0.2 0.4-0.3 0.2-0.2 0.4-0.2 0.2 0 0.1 0 0.1 0 0.2 0 0.1 0 0.2 0 0.2 0 0.5-0.2 0.3-0.2 0.6-0.4 0.3-0.3 0.6-0.5 0.2-0.3 0.4-0.4l0.2-0.4 0.4-0.3q0.3-0.1 0.6-0.3 0.2-0.2 0.5-0.2l-0.7 0.9 0.6 0.3-0.1 0.2-0.4 0.1-0.3 0.4 0.3 0.2 0.1 0.3q0.1-0.1 0.4-0.1 0.4-0.1 0.5-0.3l0.3-0.4q-0.1-0.1-0.1-0.2-0.2-0.3-0.2-0.4l-0.2-0.1h-0.4l0.8-1.1 0.1-0.5 0.5-0.2 0.6-3.4 0.1-0.5-0.1-0.1q0-0.4 0.1-0.8 0-0.4 0.1-0.8 0.1-0.5 0.2-0.8 0.1-0.4 0.1-0.6-0.5 0.1-1 0.2-0.5 0.1-1.1 0.2-0.3-0.1-0.8-0.1-0.5 0-1-0.1-0.5-0.1-0.8-0.2-0.3-0.1-0.3-0.3 0 0 0.1-0.1-0.4-0.7-0.6-1.4-0.1-0.7-0.1-1.5 0-0.3 0-0.6 0-0.3 0.1-0.6l0.4-0.6q0-0.2 0-0.3l0.2-0.1v0.2l0.4-0.5q0 0 0.2-0.2 0.2-0.3 0.3-0.4l0.2-0.3q0.1-0.1 0.1-0.2 0.1 0 0.1-0.1l0.1-0.1q0 0 0.4 0 0.4-0.1 0.8-0.2 0.4-0.1 0.8-0.1 0.4-0.1 0.6-0.1 1.1 0 1.4 0.4 0.3 0.4 0.3 0.6-0.1 0.5-0.3 0.5-0.3 0-0.6 0.3-0.2-0.1-0.4-0.1-0.6 0-1.2 0.8-0.6 0.9-0.6 1.9 0 0.2 0.1 0.7 0.1 0.5 0.4 0.8h0.4q0.7-0.2 1.1-0.3 0.4-0.1 0.6-0.2 0.3-0.2 0.4-0.4 0.2-0.4 0.3-1 0-0.9 0.3-1.8 0.3-1 0.3-1.6 0-0.2 0-0.4 0.1-0.2 0.1-0.4 0-0.1-0.1-0.2 0-0.1 0-0.3 0-0.1 0.1-0.1l1.6-0.6h0.2l0.1 0.1v-0.4l0.5 0.1 0.2-0.1q0.4 0 0.5 0.1 0.1 0 0.4 0.3v0.1l0.1 0.1 0.1 3.4q0 0.1-0.1 0.2-0.1 0.2-0.1 0.2l-0.2 1q0 0-0.1 0.5-0.2 0.5-0.4 0.9l-0.5 1.8q0 0-0.2 0.5-0.1 0.5-0.1 0.7 0 0.8 0 1.3-0.1 0.4-0.1 0.6-0.1 0.2-0.1 0.3-0.1 0-0.1 0l-0.2 2 0.7-0.3q-0.1 0.6-0.4 1.1-0.2 0.5-0.2 1.1 0 0.1 0 0.2 0 0 0 0.1-0.1 0.1-0.1 0.5 0 0.3-0.2 0.5-1.6 1.6-3 2.5-1.5 0.9-2.6 1.8zm-0.7-3l-0.2 0.1q-0.3 0.2-0.4 0.2-0.1 0-0.2 0.1l-0.9 1.1 0.3 0.1q0.1-0.2 0.4-0.4 0.3-0.3 0.4-0.4zm16.9-7.4q0.8 0.3 0.8 0.3l-0.1 0.4q0 0.5 0.2 0.9 0.1 0.2 0.2 0.2 0 0.1-0.4 0.2-0.4 0-0.9 0-0.5 0.1-1 0.1-0.5 0-0.9 0h-0.3q-1 0-1.6-0.3-0.7-0.3-1.1-1.1l-0.2-0.1-0.1-0.6q-0.1-0.3-0.2-0.6-0.1-0.4-0.1-0.7 0.1-0.3 0.3-0.5 0.1-0.2 0.3-0.3 0.2-0.2 0.3-0.3 0-0.1-0.1-0.1 0-0.2 0.3-0.6 0.2-0.3 0.7-0.7 0.4-0.4 0.8-0.7 0.4-0.3 0.7-0.5l0.3 0.1q0.1 0 0.5-0.1 0.4-0.1 0.6-0.2l0.7-0.5q0.3 0 0.3-0.3l1.7-0.8q0.1-0.1 0.2-0.2 0.1-0.1 0.1-0.2l-0.4-1.4q0-0.1-0.1-0.1 0 0 0 0 0 0-0.1 0h-0.1q-0.2 0-0.8 0.1-0.5 0.1-1.1 0.3-0.6 0.1-1.1 0.2-0.4 0.1-0.4 0.1-0.1 0-0.2 0-0.3 0-0.6-0.3-0.2-0.2-0.5-0.4l-0.4-0.2-0.2-0.2q0-0.1-0.1-0.1 0-0.1-0.1-0.2l-0.1-0.2q0-0.2 0.8-0.4 0.7-0.2 1.8-0.3 1.2-0.2 2.4-0.2 1.3-0.1 2.4-0.1h0.2q0.6 0 1 0.2 0.4 0.2 0.7 0.5 0.2 0.3 0.4 0.7 0.2 0.3 0.4 0.5v0.8q0 0.5 0 0.8 0.1 0.3 0.1 0.6 0 0.2-0.1 0.5 0 0.3-0.2 0.8 0 0.2 0.1 0.4 0.1 0.1 0.1 0.3v0.1l0.1 0.3-0.4 0.4 0.3 0.3-0.3 0.4q0 0.1-0.1 0.2-0.1 0.2-0.1 0.3h0.1l-0.1 0.7 0.3 0.1v0.3l-0.3 0.1 0.1 0.2v0.3q-0.3 0.4-0.3 1.2-0.1 0.8-0.2 1.1 0 0.1-0.3 0.1-0.3 0-0.7 0.1-0.3 0-0.6 0-0.3 0-0.3 0-0.4 0-0.7-0.2-0.3-0.3-0.4-0.6-0.2-0.3-0.3-0.7 0-0.4 0-0.7 0-0.8 0.2-1.2 0.3-0.5 0.3-1.4-0.1-0.3-0.1-0.7 0.1-0.4-0.3-0.4-0.1 0.1-0.2 0.2-0.1 0.1-0.2 0.2 0-0.1-0.2-0.1-0.1 0-0.4 0.1-0.3 0.2-0.7 0.4-0.3 0.1-0.7 0.3-0.2 0.2-0.3 0.3-0.5 0.3-1 0.5-0.4 0.3-0.7 0.6l-0.1 0.6q0 0.1-0.1 0.3 0 0.1 0 0.2v0.1l0.2-0.1 0.1 0.2q0.4 0 0.7 0 0.3 0 0.4 0.1 0.1 0 0.1 0 0-0.1 0.1-0.1 0.2 0 0.5 0.2 0.4 0.3 0.6 0.3 0.1 0 0.2-0.1zm12.8-1.8v0.3q0 0.4 0.1 0.5h0.1q0 0.2-0.1 0.4 0 0.3-0.2 0.4l-0.2 1.9q-0.2 0.1-0.4 0.1h-0.2q-0.1 0-0.2 0.1l-0.1-0.4q-0.1 0.1-0.1 0.3v0.3 0.1q-0.1-0.1-0.2-0.1-0.1 0-0.1 0.1 0 0-0.1 0-0.1 0-0.5-0.2-0.4-0.2-0.9-0.2-0.3 0-0.4 0.1 0-0.1 0-0.3 0.1-0.1 0.1-0.2-0.3-0.2-0.3-0.6-0.1-0.4-0.4-0.4h-0.1q0.1-0.2 0.1-0.5 0-0.3 0-0.5 0-0.1 0-0.6l-0.1-0.6v-0.3-0.2q0.1-0.1 0.2-0.2 0.2-0.1 0.3-0.2 0-0.1-0.1-0.2-0.1-0.2-0.1-0.4l0.2-0.3q0 0 0-0.2 0-0.3 0-0.6 0-0.4 0-0.6 0-0.3 0-0.3l0.4-5.1q0-0.3 0.1-0.4 0.2-0.1 0.4-0.1 0.3 0 0.6 0.2 0.4 0.1 0.7 0.2 0.4 0.1 0.6 0.3 0.3 0.1 0.4 0.3 0 0 0.1 0.3 0.2 0.3 0.3 0.6 0.1 0.3 0.3 0.5 0.2 0.2 0.3 0.2h0.1q0.6-0.4 0.9-0.7 0.2-0.3 0.9-0.4 0-0.2 0.6-0.5 0.6-0.4 1.3-0.7 0.7-0.4 1.3-0.6 0.5-0.2 0.3-0.2 0.3 0 0.7 0.1 0.5 0.2 0.8 0.6l0.9 0.8-0.7 0.9-0.6 0.2 0.1 0.2q-0.3 0.3-0.8 0.3-0.5 0-0.8 0.2 0 0.1 0.1 0.1-0.7 0.2-1.3 0.4-0.5 0.2-1.1 0.5-0.6 0.2-1 0.6l-0.6 0.7q0-0.1-0.3 0.1-0.2 0.1-0.5 0.4-0.3 0.2-0.6 0.6-0.3 0.2-0.3 0.5l0.4 0.1zm4.1-7.6q-0.7 0.2-1.1 0.5l-0.5 0.3 0.1 0.1q0.6-0.3 1.1-0.6 0.7-0.2 1.1-0.3-0.2 0-0.4 0-0.2 0-0.3 0zm-2.4 1q-0.1 0.1-0.4 0.3-0.3 0.2-0.4 0.3l-0.3 0.2h0.1q0.1-0.1 0.3-0.2 0.2-0.1 0.4-0.2 0.3-0.2 0.5-0.2 0.2-0.1 0.2-0.2 0-0.1-0.3-0.2 0 0 0 0.1 0 0.1-0.1 0.1z"/>
</svg>