<?xml version="1.0"?>
<svg version="1.1" xmlns="http://www.w3.org/2000/svg" width="250px" height="60px" style=""><path fill="#0e24eb" d="M61.844,45.652q-0.672,1.036-0.672,1.344t0.252,0.448q0,0.028-0.504,0.42q-0.448,0.224-1.008,0.224t-0.812-0.126t-0.168-0.406q0.392-1.26,2.94-5.054t3.416-5.362q1.876-3.388,1.876-5.404q0-0.84-0.28-1.428q-0.56-1.148-2.66-1.148q-3.276,0-6.776,2.828q-2.8,2.268-4.284,4.802t-1.484,4.522q0,2.856,2.52,2.912l0.224,0q3.22,0,4.984-2.324q0.672-0.924,0.672-1.568t-0.28-0.812q-0.028-0.028-0.028-0.112t0.168-0.084q0.728,0,0.728,0.952q0,0.588-0.574,1.596t-2.03,1.904t-3.388,0.896t-3.08-1.204t-1.148-3.164q0-4.424,5.768-9.044q1.484-1.176,3.906-1.932t4.634-0.756t3.01,0.77t0.798,2.058q0,1.96-1.596,5.292q-0.504,1.036-2.268,3.78l2.156-2.744q1.568-2.044,5.432-5.824q0.84-0.812,1.862-1.358t1.75-0.546q1.008,0,1.008,1.064q0,0.924-0.882,2.786t-1.778,3.528t-1.092,2.184t-0.28,0.826t-0.112,0.336q0.084-0.14,1.848-2.142t5.208-4.998l4.48-3.696q0.532-0.448,0.952-0.448t0.686,0.7t0.266,1.134t-1.344,1.806q-3.5,3.584-5.936,7.84t-2.436,6.076q0,0.476,0.168,0.658t0.532,0.112t1.526-0.574t1.526-0.588q0.14,0.056,0.14,0.14q0,0.42-1.47,1.176t-2.212,0.756t-0.91-0.252q-0.504-0.728-0.504-1.764q0-2.408,2.576-6.916q1.652-2.828,5.096-7.616q-2.688,2.184-7.28,6.692t-6.02,7.056q-0.728,1.316-1.764,1.316q-0.476,0-0.476-0.336q0-0.112,0.574-1.008t2.534-4.2q4.816-8.372,4.816-10.08q0-0.448-0.308-0.448q-0.448,0-1.316,0.756q-3.108,2.604-6.608,6.804t-5.264,6.972z M90.35276,40.864q0,0.98-1.876,3.276q-2.212,2.716-3.78,2.716l-0.448,0q-0.728,0-1.148-0.756q-0.336-0.532-0.336-1.176q0-1.68,2.45-4.718t3.962-3.038q1.428,0,1.428,1.512q0,0.392-0.14,1.008q0.028,0.084,0.532,0.084t1.54-0.532q-0.028,0.476-2.212,1.372q0.028,0.112,0.028,0.252z M88.53276,39.408q-0.952,0-2.702,2.24t-1.75,3.304t0.672,1.064q1.204,0,3.052-2.184t1.848-3.136q-0.448-0.252-1.12-1.288z M96.65752,37.952q0.756,0,0.756,0.588q0,0.168-0.084,0.336q-2.52,3.5-3.024,5.292q6.524-6.524,7.924-6.524q0.14-0.028,0.252-0.028q0.784,0,0.784,0.7q0,0.14-0.056,0.28t-1.12,1.512q-1.232,1.456-2.086,2.8t-0.854,2.24t0.392,0.896q1.232,0,4.284-3.388q0.056-0.056,0.196-0.252q0.42-0.504,0.504-0.504t0.084,0.28t-0.392,0.728q-3.472,3.948-4.928,3.948q-1.372,0-1.372-1.512t1.12-3.472l1.792-2.912q-1.904,1.4-3.388,3.066t-2.702,3.234t-1.414,1.568q-0.42,0-0.658-0.35t-0.238-0.868t0.364-1.386t0.924-2.1l-1.68,1.764q-0.616,0.616-0.77,0.616t-0.154-0.182t0.224-0.406q1.036-1.036,1.792-1.988q0.728-0.952,2.996-3.64q0.252-0.336,0.532-0.336z M111.54428,35.642q0.378,0.266,0.378,0.63t-0.35,0.63t-0.77,0.266t-0.77-0.308t-0.35-0.7q0-0.784,1.064-0.784q0.42,0,0.798,0.266z M105.67828,47.108q-1.428,0-1.428-1.848q0-1.512,1.652-4.186t2.66-2.702q0.28,0,0.63,0.224t0.35,0.448q-0.14,0.196-0.336,0.434t-0.42,0.518t-0.616,0.798t-0.756,0.994q-2.1,2.716-2.1,3.738t0.7,1.022q0.588,0,1.596-0.644q2.352-1.456,3.724-3.192q0.504-0.644,0.686-0.644t0.182,0.224t-0.644,0.896t-1.022,1.064t-0.518,0.518t-0.518,0.476t-0.574,0.49t-0.56,0.42t-0.644,0.406t-0.644,0.294q-0.588,0.252-1.4,0.252z M134.38304,34.816q-1.036,0.42-1.778,0.42t-0.742-0.308q0-0.196,0.826-0.224t1.19-0.196q1.064-0.56,1.064-1.652q0-0.56-0.308-1.176q-0.896-1.596-4.34-1.596q-1.988,0-3.976,0.602t-3.332,1.848t-1.344,2.31q0,1.624,3.22,2.38l3.304,0.616q1.988,0.364,2.968,1.008q1.288,0.784,1.288,2.24q0,0.588-0.196,1.26q-0.896,3.024-4.62,4.62q-3.108,1.372-7.336,1.372q-1.204,0-2.1-0.112q0.896,0.504,2.352,0.868q0.112,0.028,0.112,0.112q0,0.252-0.588,0.252q-1.148,0-2.856-1.372q-2.324-0.364-3.472-1.288q-0.728-0.588-1.344-1.736t-0.616-2.072t0.364-1.54q0.84-1.484,2.128-1.484q0.98,0,1.148,1.652q0.392,3.192,0.532,3.64q0.42,1.372,1.428,2.324q1.176,0.252,2.548,0.252q3.024,0,5.936-1.204t4.2-3.416q0.532-0.868,0.532-1.54q0-1.316-2.324-2.044l-4.928-1.12q-1.512-0.364-2.422-1.204t-0.91-1.932q0-1.68,2.1-3.36q1.596-1.288,3.906-2.002t4.536-0.714t3.682,0.644q1.876,0.868,1.876,2.534t-1.708,2.338z M116.35104,47.304q-1.624-1.792-2.072-4.9q-0.252-1.764-0.476-1.764t-0.42,0.126t-0.392,0.546t-0.196,1.092q0,2.156,1.512,3.696q0.756,0.784,2.044,1.204z M141.0518,46.688q-1.652,0-1.652-1.932q0-1.092,0.77-2.422t1.89-3.122q-3.584,1.792-6.496,5.292q-1.624,2.436-1.904,2.436q-0.812,0-0.812-0.476q0-0.252,0.336-0.896q2.716-4.844,4.116-7.084q3.332-5.348,4.704-5.796q0.056-0.028,0.112-0.028q0.364,0,0.504,0.588q-0.084,0.588-2.912,4.256q-2.94,3.724-3.332,4.872q1.036-0.756,3.612-2.548q2.772-1.932,3.668-1.932t0.896,0.7q0,0.112-0.014,0.154t-1.946,2.646t-1.932,3.836q0,0.644,0.476,0.644q1.512-0.056,4.536-3.64q0.252-0.252,0.378-0.252t0.126,0.168q0,0.56-2.772,3.024q-1.736,1.512-2.352,1.512z M155.47656,38.428l0.392-0.084q0.308,0,0.588,0.252t0.28,0.392t-1.736,2.702t-1.736,3.57q0,0.084,0.028,0.168q0.14,0.644,0.616,0.644q1.456,0,5.32-4.816q0.084-0.112,0.196-0.112t0.112,0.21t-0.252,0.546q-3.584,4.788-5.46,4.788q-0.252,0-0.476-0.084q-1.232-0.476-1.232-1.848q0-0.476,0.112-0.952l-1.736,1.68q-1.652,1.456-2.394,1.456t-1.414-0.476q-0.756-0.56-0.756-1.484q0-2.044,2.856-4.886t5.236-2.842q0.924,0,1.232,0.644q0.084,0.224,0.14,0.378t0.084,0.154z M147.10456,45.316q0,1.008,0.7,1.008q1.624,0,4.424-3.556l2.968-4.088q-0.224-0.392-0.728-0.392q-1.708,0-4.536,2.646t-2.828,4.382z M164.10532,46.38q-0.812,0.476-2.002,0.476t-1.82-0.784t-1.078-2.492q-0.504,0.504-0.7,0.504q-0.14,0-0.14-0.196t0.14-0.336q0.924-1.148,3.136-3.304l3.528-3.304q1.512-1.428,1.792-1.428q0.896,0,0.896,0.672q0,0.336-0.266,0.658t-0.392,0.504t-0.266,0.35q-0.504,0.868-1.022,3.584t-0.798,3.78q2.324-0.028,4.788-3.024q0.28-0.28,0.42-0.28t0.14,0.182t-0.252,0.49q-1.624,1.904-3.024,2.66q-0.84,0.42-2.184,0.7z M160.32532,43.272q0,0.952,0.63,1.554t1.414,0.602t1.204-0.308q0.56-0.308,1.106-2.576t0.658-4.004l0.112-0.952q-1.54,1.148-3.29,2.968t-1.806,2.408q-0.028,0.168-0.028,0.308z M176.87808,46.688q-1.652,0-1.652-1.932q0-1.092,0.77-2.422t1.89-3.122q-3.584,1.792-6.496,5.292q-1.624,2.436-1.904,2.436q-0.812,0-0.812-0.476q0-0.252,0.336-0.896q2.716-4.844,4.116-7.084q3.332-5.348,4.704-5.796q0.056-0.028,0.112-0.028q0.364,0,0.504,0.588q-0.084,0.588-2.912,4.256q-2.94,3.724-3.332,4.872q1.036-0.756,3.612-2.548q2.772-1.932,3.668-1.932t0.896,0.7q0,0.112-0.014,0.154t-1.946,2.646t-1.932,3.836q0,0.644,0.476,0.644q1.512-0.056,4.536-3.64q0.252-0.252,0.378-0.252t0.126,0.168q0,0.56-2.772,3.024q-1.736,1.512-2.352,1.512z M188.88084,35.642q0.378,0.266,0.378,0.63t-0.35,0.63t-0.77,0.266t-0.77-0.308t-0.35-0.7q0-0.784,1.064-0.784q0.42,0,0.798,0.266z M183.01484,47.108q-1.428,0-1.428-1.848q0-1.512,1.652-4.186t2.66-2.702q0.28,0,0.63,0.224t0.35,0.448q-0.14,0.196-0.336,0.434t-0.42,0.518t-0.616,0.798t-0.756,0.994q-2.1,2.716-2.1,3.738t0.7,1.022q0.588,0,1.596-0.644q2.352-1.456,3.724-3.192q0.504-0.644,0.686-0.644t0.182,0.224t-0.644,0.896t-1.022,1.064t-0.518,0.518t-0.518,0.476t-0.574,0.49t-0.56,0.42t-0.644,0.406t-0.644,0.294q-0.588,0.252-1.4,0.252z"/><path fill="#" d=""/></svg>
