<svg version="1.2" xmlns="http://www.w3.org/2000/svg" viewBox="0 0 206 38" width="206" height="38">
	<title>New Project</title>
	<style>
		.s0 { fill: #000000 } 
	</style>
	<path id="Text layer 1" class="s0" aria-label="Aarush Sagar"  d="m4.6 27h5.5v-0.9h-1.1c-0.8 0-1.4-0.2-1.4-0.8 0-0.2 0.1-0.4 0.1-0.6l1.4-3.7h10.5l1.9 5.1h-1.6v0.9h7.1v-0.9h-1.5c-1.1 0-1.2-0.3-1.6-1.3l-8.2-22-2.4 1 0.5 1.5-7.4 20.1-1.8 0.7zm4.8-6.9l4.9-13.4 5 13.4zm19.6 3.8c0 1.2 0.8 3.4 4 3.4 1.2 0 3.4-0.5 5.9-1.5v0.5l0.1 1c1.4-0.2 2.5-0.3 5-0.3v-0.9h-1.2c-1.2 0-1.4-0.2-1.4-1.3v-7.8c0-4.1-1.6-5.4-4.7-5.4-1.6 0-6.9 1.1-6.9 3.6 0 0.5 0.9 1 1.7 1.1l1.1-2.9c1.1-0.3 1.9-0.4 2.8-0.4 1.9 0 3.5 0.4 3.5 4.2v1.5c-4.5 0-9.9 1.5-9.9 5.2zm2.5-0.4c0-3.4 4.9-3.9 7.4-3.9v5.2c-2.2 0.9-3.2 1.1-4.4 1.1-2.2 0-3-1.1-3-2.4zm13.9-10.5h1.1c1.1 0 1.3 0.3 1.3 1.4v11.7h-1.6v0.9h6.6v-0.9h-1.2c-1.1 0-1.3-0.2-1.3-1.3v-10.7c0.8-0.5 1.6-1 2.8-1.1l3 1.3c0.3-0.5 0.4-1.1 0.4-1.7 0-0.5-0.5-1-2-1-1.5 0-3 0.5-4.2 1.4v-0.2l-0.1-0.9c-1.3 0.1-2.4 0.2-4.8 0.2zm13.2 0h1.1c1.1 0 1.3 0.2 1.3 1.3v7.6c0 4 1.7 5.3 4.7 5.3 1.2 0 3.5-0.4 5.9-1.4v0.4l0.1 1c1.4-0.1 2.6-0.2 5-0.2v-0.9h-1.2c-1.1 0-1.4-0.3-1.4-1.4v-11.9l-0.1-1c-1.3 0.1-2.4 0.2-4.8 0.2v1h1.1c1.1 0 1.3 0.2 1.3 1.3v10.5c-2.1 0.8-3.2 1.1-4.4 1.1-1.9 0-3.7-0.4-3.7-4.2v-8.9l-0.1-1c-1.3 0.1-2.4 0.2-4.8 0.2zm20.3 13.1c2.1 0.9 3.2 1.2 5.2 1.2 3.5 0 5.6-1.7 5.6-4.4 0-5.1-8.6-4.4-8.6-8.1 0-1.4 1.4-2.2 3-2.2 1.1 0 2 0.3 2.8 0.9l1.1 2.8h0.8v-4.2h-0.9l-0.4 0.2c-1.1-0.4-2.2-0.7-3.4-0.7-2.6 0-5 1.2-5 4 0 5 8.2 3.6 8.2 8 0 1.8-1.4 2.7-3.2 2.7-1.2 0-2.2-0.3-3.2-0.9l-1.1-2.9h-0.9zm13.1-23h1.1c1.1 0 1.3 0.2 1.3 1.4v21.6h-1.5v0.9h6.6v-0.9h-1.2c-1.1 0-1.3-0.2-1.3-1.4v-10.7c2.1-0.8 3.3-1.1 4.5-1.1 1.9 0 3.6 0.4 3.6 4.2v9h-1.6v0.9h6.6v-0.9h-1.2c-1.1 0-1.3-0.2-1.3-1.4v-7.8c0-4-1.7-5.3-4.7-5.3-1.2 0-3.5 0.4-5.9 1.4v-10.4l-0.4-1c-1.3 0.5-2.9 0.6-4.6 0.6zm29.2 23.9h1l1.6-0.7c1.5 0.7 2.8 1 4.6 1 2.9 0 7.4-1.6 7.4-6.6 0-8.4-12-5.5-12-12.6 0-3 2.3-4.3 4.5-4.3 1.3 0 2.4 0.2 3.3 0.7l1.7 4.6h0.9v-6h-0.9l-1 0.4c-1.3-0.5-2.6-0.7-4.2-0.7-3.8 0-6.7 2.3-6.7 6 0 8.4 11.9 5.5 11.9 12.4 0 3.3-2.3 5.1-5.1 5.1-1.9 0-3.5-0.7-4.8-1.9l-1.3-3.5h-0.9zm17.9-3.1c0 1.3 0.8 3.4 3.9 3.4 1.3 0 3.5-0.5 5.9-1.5v0.5l0.2 1c1.3-0.2 2.5-0.3 4.9-0.3v-0.8h-1.2c-1.1 0-1.3-0.3-1.3-1.4v-7.8c0-4-1.7-5.3-4.7-5.3-1.7 0-7 1.1-7 3.5 0 0.5 0.9 1 1.7 1.2l1.1-2.9c1.1-0.4 2-0.5 2.8-0.5 1.9 0 3.5 0.4 3.5 4.2v1.5c-4.5 0-9.8 1.5-9.8 5.2zm2.4-0.3c0-3.4 4.9-4 7.4-4v5.3c-2.1 0.8-3.1 1-4.4 1-2.1 0-3-1.1-3-2.3zm14.2 8.9c0 2.4 1.8 4.8 6.5 4.8 4.5 0 9.8-3.1 9.8-6.9 0-3.4-2.8-4.2-8.2-4.5-4.3-0.2-5.4-0.5-5.4-1.6 0-1.1 1.9-1.4 4.6-1.7 3.8-0.4 6.2-2.1 6.2-5.6 0-1.7-0.1-2.6-0.5-3.8 0.7-0.1 1.7-0.1 2.7-0.1v-0.3l-0.1-0.9-4.8 0.4c-0.9-0.4-1.9-0.6-3.1-0.6-3.6 0-6.2 2.2-6.2 5.3 0 2.3 1.4 4.1 3.5 4.9-3.2 0.5-4.6 1.6-4.6 3.2 0 1.2 0.7 2 1.9 2.4-1.3 1.4-2.3 3.1-2.3 5zm1.3 0c0-3 3.5-4.5 3.5-4.5 0.9 0.1 1.4 0.1 2.1 0.1 4.1 0.2 7.1 0.5 7.1 3 0 2.4-3.6 5-7.7 5-2.9 0-5-1.2-5-3.6zm2.7-15.5c0-2.4 1.3-4.3 3.7-4.3 1.3 0 2.3 0.5 2.9 1.5 0.3 0.9 0.4 2 0.4 2.8 0 2.4-1.1 4.4-3.3 4.4-2.4 0-3.7-2-3.7-4.4zm13.7 6.9c0 1.3 0.8 3.4 4 3.4 1.2 0 3.4-0.5 5.9-1.5v0.5l0.1 1c1.4-0.2 2.5-0.3 4.9-0.3v-0.8h-1.2c-1.1 0-1.3-0.3-1.3-1.4v-7.8c0-4-1.7-5.3-4.7-5.3-1.6 0-6.9 1.1-6.9 3.5 0 0.5 0.9 1 1.6 1.2l1.2-2.9c1.1-0.4 1.9-0.5 2.8-0.5 1.9 0 3.5 0.4 3.5 4.2v1.5c-4.6 0-9.9 1.5-9.9 5.2zm2.4-0.3c0-3.4 5-4 7.5-4v5.3c-2.2 0.8-3.2 1-4.4 1-2.2 0-3.1-1.1-3.1-2.3zm13.9-10.5h1.1c1.2 0 1.4 0.2 1.4 1.3v11.8h-1.6v0.8h6.6v-0.8h-1.2c-1.1 0-1.3-0.3-1.3-1.4v-10.7c0.7-0.5 1.5-0.9 2.8-1.1l3 1.3c0.3-0.5 0.4-1.1 0.4-1.7 0-0.5-0.6-0.9-2-0.9-1.5 0-3 0.4-4.2 1.4v-0.3l-0.1-0.9c-1.4 0.1-2.5 0.2-4.9 0.2z"/>
</svg>